<?xml-stylesheet type="text/css" href="svg-style.css" ?>

<svg width="128" height="150" preserveAspectRatio="xMidYMid meet" viewBox="127 149 127 149" fill="none" xmlns="http://www.w3.org/2000/svg">
<rect x="128" y="150" width="128" height="150" fill="#9F9F9F"/>
<rect x="0.5" y="0.5" width="255" height="299" stroke="#E0E0E0"/>
<ellipse cx="191" cy="217.5" rx="46" ry="45.5" fill="#D84E1A"/>
<path d="M190.969 207L196.281 210.22H202.656L209.031 227.61L217 245H166L173.438 227.61L179 210.22H184.594L190.969 207Z" fill="white"/>
<path d="M191.586 236.714C191.9 237.577 193.114 237.596 193.455 236.742L195.261 232.214L200.354 239.179L207.761 229L212.854 234.893L218.873 245.607L225.354 256.321L246.912 287.43C247.372 288.094 246.897 289 246.09 289H138.035C137.204 289 136.736 288.047 137.243 287.389L147.574 274L161.464 253.107L167.019 242.393L171.186 239.179L180.446 229L184.198 233.776C184.626 234.32 185.463 234.276 185.831 233.691L188.779 229L191.586 236.714Z" fill="#436682"/>
<g class="pedal">
  <circle cx="104.5" cy="172.5" r="2.5" fill="#F8CDDF"/>
  <circle cx="17.5" cy="182.5" r="2.5" fill="#F8CDDF"/>
  <circle cx="22.5" cy="161.5" r="2.5" fill="#F8CDDF"/>
  <circle cx="10.5" cy="256.5" r="2.5" fill="#F8CDDF"/>
  <circle cx="71.5" cy="174.5" r="2.5" fill="#F8CDDF"/>
  <circle cx="47.5" cy="178.5" r="2.5" fill="#F8CDDF"/>
  <circle cx="35.5" cy="207.5" r="2.5" fill="#F8CDDF"/>
  <circle cx="50.5" cy="265.5" r="2.5" fill="#F8CDDF"/>
  <circle cx="99.5" cy="209.5" r="2.5" fill="#F8CDDF"/>
  <circle cx="22.5" cy="161.5" r="2.5" fill="#F8CDDF"/>
  <circle cx="73.5" cy="200.5" r="2.5" fill="#F8CDDF"/>
  <circle cx="35.5" cy="228.5" r="2.5" fill="#F8CDDF"/>
  <circle cx="111.5" cy="286.5" r="2.5" fill="#F8CDDF"/>
  <circle cx="57.5" cy="222.5" r="2.5" fill="#F8CDDF"/>
  <circle cx="86.5" cy="258.5" r="2.5" fill="#F8CDDF"/>
  <circle cx="16.5" cy="220.5" r="2.5" fill="#F8CDDF"/>
  <circle cx="48.5" cy="249.5" r="2.5" fill="#F8CDDF"/>
  <circle cx="77.5" cy="270.5" r="2.5" fill="#F8CDDF"/>
  <circle cx="104.5" cy="22.5" r="2.5" fill="#F8CDDF"/>
  <circle cx="17.5" cy="32.5" r="2.5" fill="#F8CDDF"/>
  <circle cx="22.5" cy="11.5" r="2.5" fill="#F8CDDF"/>
  <circle cx="10.5" cy="106.5" r="2.5" fill="#F8CDDF"/>
  <circle cx="71.5" cy="24.5" r="2.5" fill="#F8CDDF"/>
  <circle cx="47.5" cy="28.5" r="2.5" fill="#F8CDDF"/>
  <circle cx="35.5" cy="57.5" r="2.5" fill="#F8CDDF"/>
  <circle cx="50.5" cy="115.5" r="2.5" fill="#F8CDDF"/>
  <circle cx="99.5" cy="59.5" r="2.5" fill="#F8CDDF"/>
  <circle cx="22.5" cy="11.5" r="2.5" fill="#F8CDDF"/>
  <circle cx="73.5" cy="50.5" r="2.5" fill="#F8CDDF"/>
  <circle cx="35.5" cy="78.5" r="2.5" fill="#F8CDDF"/>
  <circle cx="111.5" cy="136.5" r="2.5" fill="#F8CDDF"/>
  <circle cx="57.5" cy="72.5" r="2.5" fill="#F8CDDF"/>
  <circle cx="86.5" cy="108.5" r="2.5" fill="#F8CDDF"/>
  <circle cx="16.5" cy="70.5" r="2.5" fill="#F8CDDF"/>
  <circle cx="48.5" cy="99.5" r="2.5" fill="#F8CDDF"/>
  <circle cx="77.5" cy="120.5" r="2.5" fill="#F8CDDF"/>
  <circle cx="232.5" cy="22.5" r="2.5" fill="#F8CDDF"/>
  <circle cx="145.5" cy="32.5" r="2.5" fill="#F8CDDF"/>
  <circle cx="150.5" cy="11.5" r="2.5" fill="#F8CDDF"/>
  <circle cx="138.5" cy="106.5" r="2.5" fill="#F8CDDF"/>
  <circle cx="199.5" cy="24.5" r="2.5" fill="#F8CDDF"/>
  <circle cx="175.5" cy="28.5" r="2.5" fill="#F8CDDF"/>
  <circle cx="163.5" cy="57.5" r="2.5" fill="#F8CDDF"/>
  <circle cx="178.5" cy="115.5" r="2.5" fill="#F8CDDF"/>
  <circle cx="227.5" cy="59.5" r="2.5" fill="#F8CDDF"/>
  <circle cx="150.5" cy="11.5" r="2.5" fill="#F8CDDF"/>
  <circle cx="201.5" cy="50.5" r="2.5" fill="#F8CDDF"/>
  <circle cx="163.5" cy="78.5" r="2.5" fill="#F8CDDF"/>
  <circle cx="239.5" cy="136.5" r="2.5" fill="#F8CDDF"/>
  <circle cx="185.5" cy="72.5" r="2.5" fill="#F8CDDF"/>
  <circle cx="214.5" cy="108.5" r="2.5" fill="#F8CDDF"/>
  <circle cx="144.5" cy="70.5" r="2.5" fill="#F8CDDF"/>
  <circle cx="176.5" cy="99.5" r="2.5" fill="#F8CDDF"/>
  <circle cx="205.5" cy="120.5" r="2.5" fill="#F8CDDF"/>
  <circle cx="232.5" cy="172.5" r="2.5" fill="#F8CDDF"/>
  <circle cx="145.5" cy="182.5" r="2.5" fill="#F8CDDF"/>
  <circle cx="150.5" cy="161.5" r="2.5" fill="#F8CDDF"/>
  <circle cx="138.5" cy="256.5" r="2.5" fill="#F8CDDF"/>
  <circle cx="199.5" cy="174.5" r="2.5" fill="#F8CDDF"/>
  <circle cx="175.5" cy="178.5" r="2.5" fill="#F8CDDF"/>
  <circle cx="163.5" cy="207.5" r="2.5" fill="#F8CDDF"/>
  <circle cx="178.5" cy="265.5" r="2.5" fill="#F8CDDF"/>
  <circle cx="227.5" cy="209.5" r="2.5" fill="#F8CDDF"/>
  <circle cx="150.5" cy="161.5" r="2.5" fill="#F8CDDF"/>
  <circle cx="201.5" cy="200.5" r="2.5" fill="#F8CDDF"/>
  <circle cx="163.5" cy="228.5" r="2.5" fill="#F8CDDF"/>
  <circle cx="239.5" cy="286.5" r="2.5" fill="#F8CDDF"/>
  <circle cx="185.5" cy="222.5" r="2.5" fill="#F8CDDF"/>
  <circle cx="214.5" cy="258.5" r="2.5" fill="#F8CDDF"/>
  <circle cx="144.5" cy="220.5" r="2.5" fill="#F8CDDF"/>
  <circle cx="176.5" cy="249.5" r="2.5" fill="#F8CDDF"/>
  <circle cx="205.5" cy="270.5" r="2.5" fill="#F8CDDF"/>
</g>
</svg>
